<svg width="198" height="38" viewBox="0 0 198 38" fill="none" xmlns="http://www.w3.org/2000/svg">
<g filter="url(#filter0_d_1_3)">
<path d="M14.2189 29.4C10.0322 29.4 6.79224 27.88 4.49891 24.84C4.25891 24.5467 4.13891 24.2533 4.13891 23.96C4.13891 23.56 4.32557 23.2133 4.69891 22.92C4.93891 22.7067 5.23224 22.6 5.57891 22.6C6.08557 22.6 6.49891 22.8133 6.81891 23.24C7.72557 24.4933 8.75224 25.4 9.89891 25.96C11.0722 26.52 12.5122 26.8 14.2189 26.8C16.1389 26.8 17.6189 26.24 18.6589 25.12C19.7256 23.9733 20.2589 22.3733 20.2589 20.32V2.2C20.2589 1.69333 20.3789 1.30667 20.6189 1.04C20.8856 0.746665 21.2589 0.599998 21.7389 0.599998C22.2189 0.599998 22.5922 0.746665 22.8589 1.04C23.1522 1.30667 23.2989 1.69333 23.2989 2.2V20.16C23.2989 21.9733 22.9122 23.5867 22.1389 25C21.3656 26.3867 20.2856 27.4667 18.8989 28.24C17.5389 29.0133 15.9789 29.4 14.2189 29.4ZM42.6852 29.4C39.9918 29.4 37.5652 28.8133 35.4052 27.64C33.2452 26.44 31.5385 24.7467 30.2852 22.56C29.0585 20.3733 28.4452 17.8533 28.4452 15C28.4452 12.12 29.0585 9.6 30.2852 7.44C31.5385 5.25333 33.2452 3.57333 35.4052 2.4C37.5652 1.2 39.9918 0.599998 42.6852 0.599998C45.3785 0.599998 47.8052 1.2 49.9652 2.4C52.1252 3.57333 53.8185 5.25333 55.0452 7.44C56.2985 9.6 56.9252 12.12 56.9252 15C56.9252 17.8533 56.2985 20.3733 55.0452 22.56C53.8185 24.7467 52.1252 26.44 49.9652 27.64C47.8052 28.8133 45.3785 29.4 42.6852 29.4ZM42.6852 26.84C44.8452 26.84 46.7652 26.3733 48.4452 25.44C50.1518 24.5067 51.4852 23.16 52.4452 21.4C53.4318 19.6133 53.9252 17.48 53.9252 15C53.9252 12.4933 53.4185 10.3467 52.4052 8.56C51.4185 6.77333 50.0585 5.42667 48.3252 4.52C46.6185 3.61333 44.7118 3.16 42.6052 3.16C40.4718 3.16 38.5518 3.62667 36.8452 4.56C35.1652 5.49333 33.8452 6.85333 32.8852 8.64C31.9252 10.4267 31.4452 12.5467 31.4452 15C31.4452 17.48 31.9252 19.6133 32.8852 21.4C33.8718 23.16 35.2052 24.5067 36.8852 25.44C38.5918 26.3733 40.5252 26.84 42.6852 26.84ZM66.8717 29C65.2451 29 63.9784 28.5733 63.0717 27.72C62.1651 26.84 61.7117 25.64 61.7117 24.12V5.8C61.7117 4.30667 62.1517 3.13333 63.0317 2.28C63.9384 1.42666 65.1917 0.999998 66.7917 0.999998H76.2717C78.9651 0.999998 81.0584 1.66666 82.5517 3C84.0451 4.33333 84.7917 6.21333 84.7917 8.64C84.7917 10.0267 84.4317 11.24 83.7117 12.28C82.9917 13.2933 82.0051 14.0667 80.7517 14.6V14.68C82.1651 15.1867 83.2717 15.9867 84.0717 17.08C84.8717 18.1467 85.2717 19.4133 85.2717 20.88C85.2717 23.3867 84.5117 25.3733 82.9917 26.84C81.4717 28.28 79.3917 29 76.7517 29H66.8717ZM76.5917 13.48C78.1651 13.48 79.4184 13.04 80.3517 12.16C81.2851 11.28 81.7517 10.1067 81.7517 8.64C81.7517 6.96 81.2851 5.68 80.3517 4.8C79.4184 3.92 78.0584 3.48 76.2717 3.48H66.8317C66.2184 3.48 65.7117 3.70667 65.3117 4.16C64.9117 4.58667 64.7117 5.13333 64.7117 5.8V13.48H76.5917ZM76.5917 26.48C78.4317 26.48 79.8317 26.0133 80.7917 25.08C81.7517 24.12 82.2317 22.7333 82.2317 20.92C82.2317 19.3467 81.7251 18.12 80.7117 17.24C79.6984 16.36 78.3117 15.92 76.5517 15.92H64.7117V24.2C64.7117 24.8667 64.9117 25.4133 65.3117 25.84C65.7117 26.2667 66.2184 26.48 66.8317 26.48H76.5917ZM102.057 29.4C99.497 29.4 97.137 28.9733 94.977 28.12C92.8437 27.24 91.177 26.04 89.977 24.52C89.7637 24.2533 89.657 23.9733 89.657 23.68C89.657 23.3067 89.857 22.9467 90.257 22.6C90.4704 22.44 90.697 22.36 90.937 22.36C91.417 22.36 91.8437 22.5867 92.217 23.04C93.3104 24.24 94.6837 25.1733 96.337 25.84C98.017 26.48 99.9237 26.8 102.057 26.8C104.404 26.8 106.217 26.3733 107.497 25.52C108.777 24.64 109.417 23.4 109.417 21.8C109.417 20.4133 108.79 19.2933 107.537 18.44C106.31 17.5867 104.217 16.8267 101.257 16.16C97.3904 15.3067 94.6037 14.24 92.897 12.96C91.217 11.6533 90.377 9.93333 90.377 7.8C90.377 5.58667 91.3104 3.84 93.177 2.56C95.0704 1.25333 97.617 0.599998 100.817 0.599998C103.244 0.599998 105.43 1.02667 107.377 1.88C109.35 2.73333 110.75 3.88 111.577 5.32C111.737 5.58667 111.817 5.84 111.817 6.08C111.817 6.50667 111.59 6.88 111.137 7.2C110.95 7.30667 110.737 7.36 110.497 7.36C109.91 7.36 109.457 7.13333 109.137 6.68C108.364 5.56 107.27 4.70667 105.857 4.12C104.444 3.50667 102.764 3.2 100.817 3.2C95.8837 3.2 93.417 4.73333 93.417 7.8C93.417 8.73333 93.6704 9.52 94.177 10.16C94.6837 10.7733 95.497 11.3333 96.617 11.84C97.7637 12.32 99.3504 12.8 101.377 13.28C105.324 14.2133 108.164 15.3467 109.897 16.68C111.63 17.9867 112.497 19.6933 112.497 21.8C112.497 24.1467 111.55 26 109.657 27.36C107.79 28.72 105.257 29.4 102.057 29.4ZM127.628 29.4C127.148 29.4 126.775 29.2667 126.508 29C126.268 28.7067 126.148 28.3067 126.148 27.8V3.48H116.988C116.508 3.48 116.121 3.38667 115.828 3.2C115.561 2.98666 115.428 2.68 115.428 2.28C115.428 1.42666 115.948 0.999998 116.988 0.999998H138.348C139.388 0.999998 139.908 1.42666 139.908 2.28C139.908 2.65333 139.775 2.94667 139.508 3.16C139.241 3.37333 138.855 3.48 138.348 3.48H129.188V27.8C129.188 28.3067 129.041 28.7067 128.748 29C128.481 29.2667 128.108 29.4 127.628 29.4ZM149.997 29C148.37 29 147.103 28.5733 146.197 27.72C145.29 26.8667 144.837 25.6667 144.837 24.12V5.8C144.837 4.30667 145.277 3.13333 146.157 2.28C147.063 1.42666 148.317 0.999998 149.917 0.999998H162.317C163.357 0.999998 163.877 1.42666 163.877 2.28C163.877 2.65333 163.743 2.94667 163.477 3.16C163.21 3.37333 162.823 3.48 162.317 3.48H149.957C149.317 3.48 148.797 3.69333 148.397 4.12C148.023 4.54667 147.837 5.10667 147.837 5.8V13.44H159.277C160.317 13.44 160.837 13.8667 160.837 14.72C160.837 15.12 160.69 15.4267 160.397 15.64C160.13 15.8533 159.757 15.96 159.277 15.96H147.837V24.2C147.837 24.8933 148.023 25.4533 148.397 25.88C148.797 26.3067 149.317 26.52 149.957 26.52H163.197C164.237 26.52 164.757 26.9333 164.757 27.76C164.757 28.16 164.61 28.4667 164.317 28.68C164.05 28.8933 163.677 29 163.197 29H149.997ZM169.989 6C169.989 4.48 170.429 3.26667 171.309 2.36C172.216 1.45333 173.523 0.999998 175.229 0.999998H182.709C189.963 0.999998 193.589 4.01333 193.589 10.04C193.589 12.9467 192.709 15.1467 190.949 16.64C189.189 18.1333 186.536 18.88 182.989 18.88L190.749 26.92C190.989 27.16 191.109 27.4667 191.109 27.84C191.109 28.32 190.909 28.7067 190.509 29C190.189 29.24 189.856 29.36 189.509 29.36C188.976 29.36 188.469 29.0933 187.989 28.56L178.789 18.88H173.389V27.68C173.389 28.2133 173.229 28.64 172.909 28.96C172.616 29.2533 172.203 29.4 171.669 29.4C171.136 29.4 170.723 29.2533 170.429 28.96C170.136 28.64 169.989 28.2133 169.989 27.68V6ZM182.909 16.12C185.363 16.12 187.176 15.6667 188.349 14.76C189.549 13.8267 190.149 12.2533 190.149 10.04C190.149 7.8 189.549 6.2 188.349 5.24C187.149 4.25333 185.336 3.76 182.909 3.76H175.429C174.816 3.76 174.323 3.96 173.949 4.36C173.576 4.76 173.389 5.30667 173.389 6V16.12H182.909Z" fill="#209CEE"/>
</g>
<defs>
<filter id="filter0_d_1_3" x="0.138901" y="0.600006" width="197.45" height="36.8" filterUnits="userSpaceOnUse" color-interpolation-filters="sRGB">
<feFlood flood-opacity="0" result="BackgroundImageFix"/>
<feColorMatrix in="SourceAlpha" type="matrix" values="0 0 0 0 0 0 0 0 0 0 0 0 0 0 0 0 0 0 127 0" result="hardAlpha"/>
<feOffset dy="4"/>
<feGaussianBlur stdDeviation="2"/>
<feComposite in2="hardAlpha" operator="out"/>
<feColorMatrix type="matrix" values="0 0 0 0 0 0 0 0 0 0 0 0 0 0 0 0 0 0 0.25 0"/>
<feBlend mode="normal" in2="BackgroundImageFix" result="effect1_dropShadow_1_3"/>
<feBlend mode="normal" in="SourceGraphic" in2="effect1_dropShadow_1_3" result="shape"/>
</filter>
</defs>
</svg>
