<svg width="262" height="82" viewBox="0 0 262 82" fill="none" xmlns="http://www.w3.org/2000/svg">
<g filter="url(#filter0_d_1_3)">
<path d="M45.7031 6.0625C45.7031 7.3125 45.4219 8.25 44.8594 8.875C44.3281 9.46875 43.6406 9.89063 42.7969 10.1406C41.9531 10.3906 41.0312 10.5469 40.0312 10.6094C39.0625 10.6406 38.1406 10.7187 37.2656 10.8438L34.7344 11.125C35.4531 16.6562 35.8906 22.1875 36.0469 27.7188C36.2344 33.2188 36.3281 38.7812 36.3281 44.4062C36.3281 46.1562 36.2812 48.0156 36.1875 49.9844C36.0938 51.9219 35.875 53.8594 35.5312 55.7969C35.1875 57.7031 34.6875 59.5312 34.0312 61.2812C33.375 63.0312 32.4844 64.5781 31.3594 65.9219C30.2344 67.2344 28.8438 68.2969 27.1875 69.1094C25.5312 69.8906 23.5469 70.2812 21.2344 70.2812C18.5781 70.2812 16.2031 69.7188 14.1094 68.5938C12.0469 67.4375 10.2969 65.9375 8.85938 64.0938C7.42188 62.25 6.32812 60.1562 5.57812 57.8125C4.82812 55.4375 4.45312 53.0312 4.45312 50.5938C4.45312 50.0938 4.46875 49.2812 4.5 48.1562C4.5625 47.0312 4.6875 45.8906 4.875 44.7344C5.09375 43.5469 5.40625 42.5156 5.8125 41.6406C6.25 40.7344 6.82812 40.2812 7.54688 40.2812C7.95312 40.2812 8.45312 40.3906 9.04688 40.6094C9.67188 40.7969 10.25 41.0625 10.7812 41.4062C11.3438 41.75 11.8125 42.1562 12.1875 42.625C12.5938 43.0625 12.7969 43.5312 12.7969 44.0312C12.7969 45.2188 12.6562 46.375 12.375 47.5C12.0938 48.625 11.9531 49.7812 11.9531 50.9688C11.9531 52.25 12.1406 53.6719 12.5156 55.2344C12.8906 56.7969 13.4531 58.2812 14.2031 59.6875C14.9531 61.0625 15.8906 62.2188 17.0156 63.1562C18.1719 64.0938 19.5156 64.5625 21.0469 64.5625C22.1719 64.5625 23.125 64.3594 23.9062 63.9531C24.7188 63.5156 25.3906 62.9531 25.9219 62.2656C26.4844 61.5469 26.9219 60.7344 27.2344 59.8281C27.5781 58.9219 27.8594 58 28.0781 57.0625C28.7969 53.9062 29.2031 50.7188 29.2969 47.5C29.4219 44.25 29.4844 40.9688 29.4844 37.6562C29.4844 33.375 29.375 29.0938 29.1562 24.8125C28.9688 20.5313 28.6094 16.25 28.0781 11.9688C25.9531 12.2187 23.8594 12.4844 21.7969 12.7656C19.7344 13.0469 17.6406 13.1875 15.5156 13.1875C14.9844 13.1875 14.5625 13.0781 14.25 12.8594C13.9688 12.6406 13.8281 12.25 13.8281 11.6875C13.8281 10.5938 14.1562 9.76562 14.8125 9.20312C15.4688 8.60937 16.2969 8.1875 17.2969 7.9375C18.9531 7.46875 20.6406 7.14062 22.3594 6.95312C24.1094 6.73437 25.8281 6.5 27.5156 6.25V5.5C27.5156 4.96875 27.7031 4.64063 28.0781 4.51562C28.4531 4.35938 28.8594 4.28125 29.2969 4.28125C29.9531 4.28125 30.5938 4.375 31.2188 4.5625C31.8438 4.75 32.4219 5.0625 32.9531 5.5C34.7031 5.21875 36.4375 4.89062 38.1562 4.51562C39.9062 4.10937 41.7031 3.90625 43.5469 3.90625C44.2031 3.90625 44.7188 4.10937 45.0938 4.51562C45.5 4.89062 45.7031 5.40625 45.7031 6.0625ZM78.2344 34C78.2344 35.3125 78.2031 36.8438 78.1406 38.5938C78.1094 40.3125 78 42.1562 77.8125 44.125C77.6562 46.0938 77.4062 48.1094 77.0625 50.1719C76.75 52.2344 76.3281 54.25 75.7969 56.2188C75.2656 58.1875 74.6094 60.0469 73.8281 61.7969C73.0469 63.5469 72.1094 65.0781 71.0156 66.3906C69.9219 67.7031 68.6562 68.75 67.2188 69.5312C65.7812 70.2812 64.1406 70.6562 62.2969 70.6562C60.4531 70.6562 58.7812 70.2344 57.2812 69.3906C55.7812 68.5156 54.5156 67.375 53.4844 65.9688C52.6406 64.8438 51.8906 63.4688 51.2344 61.8438C50.6094 60.1875 50.0469 58.3906 49.5469 56.4531C49.0781 54.5156 48.6719 52.5 48.3281 50.4062C47.9844 48.3125 47.7031 46.25 47.4844 44.2188C47.2969 42.1875 47.1562 40.2656 47.0625 38.4531C46.9688 36.6094 46.9219 35 46.9219 33.625C46.9219 31.3125 47.0156 28.8906 47.2031 26.3594C47.4219 23.8281 47.8125 21.3281 48.375 18.8594C48.9375 16.3594 49.7031 13.9531 50.6719 11.6406C51.6406 9.32813 52.8906 7.25 54.4219 5.40625C54.5781 5.21875 54.7656 5 54.9844 4.75C55.2344 4.5 55.5 4.26563 55.7812 4.04688C56.0625 3.79688 56.3438 3.59375 56.625 3.4375C56.9375 3.25 57.2344 3.15625 57.5156 3.15625C57.7969 3.15625 58.0625 3.23438 58.3125 3.39062C58.5938 3.54687 58.8281 3.75 59.0156 4C59.6719 3.625 60.3594 3.35937 61.0781 3.20312C61.8281 3.04688 62.5781 2.96875 63.3281 2.96875C65.6094 2.96875 67.5625 3.51563 69.1875 4.60938C70.8438 5.67188 72.2188 7.07813 73.3125 8.82812C74.4062 10.5781 75.2812 12.5625 75.9375 14.7812C76.5938 17 77.0938 19.2656 77.4375 21.5781C77.7812 23.8906 78 26.125 78.0938 28.2812C78.1875 30.4375 78.2344 32.3438 78.2344 34ZM70.9219 36.0625C70.9219 35.25 70.8906 34.0156 70.8281 32.3594C70.7969 30.6719 70.6875 28.8281 70.5 26.8281C70.3125 24.7969 70.0469 22.7188 69.7031 20.5938C69.3906 18.4688 68.9531 16.5469 68.3906 14.8281C67.8281 13.0781 67.125 11.6562 66.2812 10.5625C65.4688 9.4375 64.4844 8.875 63.3281 8.875C62.8594 8.875 62.4375 9.09375 62.0625 9.53125C61.6875 9.96875 61.3281 10.5312 60.9844 11.2188C60.6406 11.9063 60.3281 12.6563 60.0469 13.4688C59.7656 14.2812 59.4844 15.0625 59.2031 15.8125C58.9219 16.5625 58.6562 17.2344 58.4062 17.8281C58.1562 18.4219 57.8906 18.8438 57.6094 19.0938C57.5156 19.1875 57.3594 19.25 57.1406 19.2812C56.9531 19.2812 56.7656 19.2812 56.5781 19.2812C56.0469 19.2812 55.5469 19.1875 55.0781 19C54.5469 21.125 54.1719 23.25 53.9531 25.375C53.7656 27.4688 53.6719 29.5938 53.6719 31.75C53.6719 32.4062 53.7031 33.3906 53.7656 34.7031C53.8281 36.0156 53.9219 37.5156 54.0469 39.2031C54.1719 40.8906 54.3438 42.7031 54.5625 44.6406C54.7812 46.5781 55.0469 48.5156 55.3594 50.4531C55.6719 52.3594 56.0312 54.2031 56.4375 55.9844C56.875 57.7344 57.375 59.2969 57.9375 60.6719C58.5 62.0156 59.125 63.0938 59.8125 63.9062C60.5 64.7188 61.2656 65.125 62.1094 65.125C62.5781 65.125 63 65 63.375 64.75C63.75 64.4688 64.1094 64.1875 64.4531 63.9062C65.3906 63.0625 66.2031 61.9531 66.8906 60.5781C67.5781 59.2031 68.1562 57.6875 68.625 56.0312C69.0938 54.375 69.4844 52.6406 69.7969 50.8281C70.1094 48.9844 70.3438 47.1719 70.5 45.3906C70.6562 43.6094 70.7656 41.9219 70.8281 40.3281C70.8906 38.7031 70.9219 37.2812 70.9219 36.0625ZM116.344 51.625C116.344 55.2812 115.75 58.4688 114.562 61.1875C113.406 63.9062 111.781 66.1719 109.688 67.9844C107.594 69.7969 105.094 71.1406 102.188 72.0156C99.3125 72.9219 96.1562 73.375 92.7188 73.375H91.125C90.8125 73.375 90.3438 73.3594 89.7188 73.3281C89.0938 73.3281 88.4531 73.2656 87.7969 73.1406C87.1719 73.0469 86.6094 72.875 86.1094 72.625C85.6406 72.375 85.4062 72.0312 85.4062 71.5938C85.4062 71.0938 85.5156 70.5938 85.7344 70.0938C85.9844 69.625 86.2969 69.2031 86.6719 68.8281C87.0469 68.4219 87.4688 68.0938 87.9375 67.8438C88.4062 67.5625 88.875 67.375 89.3438 67.2812C89.0938 66.9688 88.9062 66.5469 88.7812 66.0156C88.6562 65.4844 88.5469 64.9219 88.4531 64.3281C88.3594 63.7344 88.2812 63.1562 88.2188 62.5938C88.1875 62 88.1562 61.5 88.125 61.0938C87.5625 56.25 87.0781 51.4219 86.6719 46.6094C86.2656 41.7969 86.0625 36.9375 86.0625 32.0312C86.0625 28.9062 86.1094 25.8125 86.2031 22.75C86.2969 19.6875 86.375 16.5938 86.4375 13.4688C86.5 12.1875 86.5156 10.9219 86.4844 9.67188C86.4844 8.42187 86.5312 7.15625 86.625 5.875C86.4375 5.9375 86.2344 5.96875 86.0156 5.96875C85.7969 5.96875 85.5625 5.96875 85.3125 5.96875C84.8438 5.96875 84.375 5.89062 83.9062 5.73438C83.4688 5.54688 83.25 5.125 83.25 4.46875C83.25 3.65625 83.4219 3 83.7656 2.5C84.1094 2 84.5469 1.625 85.0781 1.375C85.6094 1.09375 86.2031 0.921875 86.8594 0.859375C87.5469 0.765625 88.2188 0.71875 88.875 0.71875C91.875 0.71875 94.7812 1.09375 97.5938 1.84375C100.406 2.59375 102.891 3.75 105.047 5.3125C107.203 6.875 108.938 8.875 110.25 11.3125C111.562 13.7187 112.219 16.5938 112.219 19.9375C112.219 22.6875 111.719 25.3125 110.719 27.8125C109.719 30.3125 108.25 32.5312 106.312 34.4688C108.062 35.2188 109.562 36.2031 110.812 37.4219C112.094 38.6094 113.141 39.9531 113.953 41.4531C114.766 42.9531 115.359 44.5781 115.734 46.3281C116.141 48.0469 116.344 49.8125 116.344 51.625ZM105.094 19.2812C105.094 17.4062 104.797 15.75 104.203 14.3125C103.609 12.8438 102.781 11.5781 101.719 10.5156C100.656 9.42188 99.3906 8.54688 97.9219 7.89062C96.4531 7.20312 94.8438 6.6875 93.0938 6.34375C93.1562 6.5 93.1875 6.64062 93.1875 6.76562C93.1875 6.89063 93.1875 7 93.1875 7.09375C93.1875 10.0625 93.1562 13 93.0938 15.9062C93.0312 18.7812 93 21.6875 93 24.625V29.5C93 30.125 93.0156 30.7656 93.0469 31.4219C93.0781 32.0469 93.0938 32.6875 93.0938 33.3438C93.9062 33 94.7188 32.8281 95.5312 32.8281C96.375 32.7969 97.2188 32.7812 98.0625 32.7812C100.406 31.3125 102.156 29.3906 103.312 27.0156C104.5 24.6094 105.094 22.0312 105.094 19.2812ZM109.312 51.5312C109.312 50.0312 109.172 48.5781 108.891 47.1719C108.641 45.7656 108.188 44.4844 107.531 43.3281C106.875 42.1406 106.016 41.125 104.953 40.2812C103.891 39.4375 102.562 38.8125 100.969 38.4062C98.5938 39.75 96.0625 40.6562 93.375 41.125C93.625 44.6562 93.9219 48.1875 94.2656 51.7188C94.6406 55.2188 95.1562 58.7188 95.8125 62.2188C95.9688 63.0312 96.1406 63.8438 96.3281 64.6562C96.5469 65.4375 96.6875 66.25 96.75 67.0938C98.8438 66.8125 100.672 66.2344 102.234 65.3594C103.828 64.4531 105.141 63.3281 106.172 61.9844C107.234 60.6094 108.016 59.0312 108.516 57.25C109.047 55.4688 109.312 53.5625 109.312 51.5312ZM149.297 55.1875C149.297 57.5 148.922 59.6875 148.172 61.75C147.422 63.8125 146.344 65.625 144.938 67.1875C143.562 68.7188 141.891 69.9375 139.922 70.8438C137.953 71.7812 135.766 72.25 133.359 72.25C131.234 72.25 129.266 71.9062 127.453 71.2188C125.672 70.5625 124.125 69.625 122.812 68.4062C121.5 67.1875 120.469 65.7031 119.719 63.9531C119 62.2031 118.641 60.25 118.641 58.0938C118.641 57.6562 118.656 57.1094 118.688 56.4531C118.719 55.7969 118.812 55.1719 118.969 54.5781C119.156 53.9531 119.406 53.4375 119.719 53.0312C120.062 52.5938 120.547 52.375 121.172 52.375C121.672 52.375 122.219 52.4844 122.812 52.7031C123.438 52.8906 124.016 53.1562 124.547 53.5C125.078 53.8438 125.516 54.2656 125.859 54.7656C126.234 55.2344 126.422 55.75 126.422 56.3125V59.0312C126.422 61.1875 127 62.9531 128.156 64.3281C129.344 65.6719 131.047 66.3438 133.266 66.3438C134.828 66.3438 136.172 65.9844 137.297 65.2656C138.422 64.5469 139.328 63.625 140.016 62.5C140.734 61.375 141.25 60.125 141.562 58.75C141.906 57.3438 142.078 55.9688 142.078 54.625C142.078 52 141.531 49.4531 140.438 46.9844C139.375 44.5156 138.031 42.1094 136.406 39.7656C134.781 37.3906 133.016 35.0625 131.109 32.7812C129.203 30.5 127.438 28.2344 125.812 25.9844C124.188 23.7344 122.828 21.4844 121.734 19.2344C120.672 16.9844 120.141 14.6875 120.141 12.3438C120.141 10.4375 120.516 8.79687 121.266 7.42188C122.047 6.01562 123.062 4.875 124.312 4C125.594 3.09375 127.031 2.4375 128.625 2.03125C130.25 1.59375 131.922 1.375 133.641 1.375C135.734 1.375 137.609 1.67187 139.266 2.26562C140.922 2.85938 142.328 3.71875 143.484 4.84375C144.641 5.96875 145.516 7.35938 146.109 9.01562C146.734 10.6406 147.047 12.5 147.047 14.5938C147.047 14.9063 147.031 15.2969 147 15.7656C146.969 16.2344 146.891 16.7031 146.766 17.1719C146.641 17.6094 146.453 18 146.203 18.3438C145.953 18.6563 145.609 18.8125 145.172 18.8125C144.547 18.8125 143.922 18.6563 143.297 18.3438C142.766 18.0625 142.328 17.7969 141.984 17.5469C141.672 17.2656 141.422 16.9688 141.234 16.6562C141.047 16.3125 140.906 15.9375 140.812 15.5312C140.719 15.125 140.641 14.625 140.578 14.0312C140.422 12.9062 140.219 11.8906 139.969 10.9844C139.719 10.0781 139.344 9.3125 138.844 8.6875C138.344 8.0625 137.688 7.57812 136.875 7.23438C136.062 6.89063 135.016 6.71875 133.734 6.71875C132.828 6.71875 131.953 6.8125 131.109 7C130.297 7.1875 129.578 7.5 128.953 7.9375C128.359 8.375 127.875 8.95313 127.5 9.67188C127.156 10.3594 126.984 11.2188 126.984 12.25C126.984 13.6875 127.297 15.1562 127.922 16.6562C128.578 18.1562 129.422 19.6875 130.453 21.25C131.516 22.8125 132.703 24.4219 134.016 26.0781C135.359 27.7031 136.734 29.3906 138.141 31.1406C139.547 32.8906 140.906 34.7031 142.219 36.5781C143.562 38.4219 144.75 40.3438 145.781 42.3438C146.844 44.3438 147.688 46.4219 148.312 48.5781C148.969 50.7031 149.297 52.9062 149.297 55.1875ZM183.797 5.5C183.797 6.625 183.469 7.54688 182.812 8.26562C182.188 8.98437 181.328 9.46875 180.234 9.71875C178.484 10.0938 176.688 10.2969 174.844 10.3281C173.031 10.3281 171.234 10.375 169.453 10.4688V19.75C169.453 27.625 169.688 35.4844 170.156 43.3281C170.656 51.1406 171.453 58.9688 172.547 66.8125C172.641 67.2812 172.734 67.75 172.828 68.2188C172.953 68.6875 173.016 69.1562 173.016 69.625C173.016 70.375 172.812 70.9219 172.406 71.2656C172.031 71.6094 171.484 71.7812 170.766 71.7812C170.203 71.7812 169.5 71.7031 168.656 71.5469C167.844 71.4219 167.203 71.2188 166.734 70.9375C166.109 70.5625 165.703 70.1875 165.516 69.8125C165.359 69.4062 165.234 68.875 165.141 68.2188C164.797 66 164.562 63.7812 164.438 61.5625C164.312 59.3438 164.172 57.125 164.016 54.9062C163.641 50.1562 163.328 45.4219 163.078 40.7031C162.828 35.9844 162.703 31.25 162.703 26.5C162.703 23.9062 162.719 21.3281 162.75 18.7656C162.781 16.2031 162.797 13.5938 162.797 10.9375C160.859 11.125 158.906 11.3125 156.938 11.5C155 11.6875 153.047 11.7812 151.078 11.7812C150.609 11.7812 150.234 11.6719 149.953 11.4531C149.641 11.2031 149.484 10.8438 149.484 10.375C149.484 9.28125 149.844 8.4375 150.562 7.84375C151.281 7.21875 152.141 6.78125 153.141 6.53125C154.734 6.1875 156.359 5.96875 158.016 5.875C159.672 5.75 161.328 5.59375 162.984 5.40625C162.984 5.09375 163 4.79688 163.031 4.51562C163.062 4.20312 163.125 3.9375 163.219 3.71875C163.344 3.46875 163.516 3.26562 163.734 3.10938C163.953 2.95313 164.266 2.875 164.672 2.875C165.422 2.875 166.188 3.04688 166.969 3.39062C167.75 3.73437 168.359 4.21875 168.797 4.84375L176.578 4C177.328 3.90625 178.078 3.8125 178.828 3.71875C179.578 3.59375 180.328 3.53125 181.078 3.53125C181.422 3.53125 181.75 3.54687 182.062 3.57812C182.406 3.60938 182.703 3.70313 182.953 3.85938C183.203 3.98438 183.406 4.1875 183.562 4.46875C183.719 4.71875 183.797 5.0625 183.797 5.5ZM218.531 59.7812C218.531 60.3125 218.312 60.8281 217.875 61.3281C217.469 61.8281 216.969 62.3125 216.375 62.7812C215.781 63.25 215.172 63.6875 214.547 64.0938C213.922 64.4688 213.406 64.7812 213 65.0312C211.938 65.7188 210.875 66.3594 209.812 66.9531C208.781 67.5469 207.703 68.0625 206.578 68.5C205.484 68.9375 204.344 69.2812 203.156 69.5312C202 69.7812 200.781 69.9062 199.5 69.9062L198.75 70C197.719 70 196.688 69.8906 195.656 69.6719C194.656 69.4219 193.719 69.0625 192.844 68.5938C191.969 68.0938 191.188 67.4688 190.5 66.7188C189.812 65.9688 189.281 65.0625 188.906 64C188.625 63.1562 188.406 62.1562 188.25 61C188.094 59.8438 187.969 58.6406 187.875 57.3906C187.812 56.1406 187.75 54.9219 187.688 53.7344C187.656 52.5156 187.625 51.4375 187.594 50.5C187.125 40.9375 186.75 31.375 186.469 21.8125C186.406 20.7188 186.359 19.625 186.328 18.5312C186.297 17.4375 186.281 16.3437 186.281 15.25C186.281 13.375 186.391 11.7812 186.609 10.4688C186.828 9.15625 187.266 8.07812 187.922 7.23438C188.578 6.39062 189.516 5.78125 190.734 5.40625C191.984 5.03125 193.625 4.84375 195.656 4.84375C197.688 4.84375 199.719 4.85937 201.75 4.89062C203.812 4.92188 205.875 4.9375 207.938 4.9375C208.562 4.9375 209.188 4.92188 209.812 4.89062C210.438 4.82813 211.062 4.875 211.688 5.03125C212.062 5.09375 212.391 5.20313 212.672 5.35938C212.953 5.48438 213.094 5.78125 213.094 6.25C213.094 7.375 212.719 8.21875 211.969 8.78125C211.219 9.3125 210.328 9.67188 209.297 9.85938C208.266 10.0469 207.188 10.1406 206.062 10.1406C204.969 10.1094 204.062 10.0938 203.344 10.0938H197.25C196.625 10.0938 196 10.0938 195.375 10.0938C194.75 10.0938 194.125 10.125 193.5 10.1875C193.312 10.6562 193.188 11.1406 193.125 11.6406C193.062 12.1406 193.031 12.6563 193.031 13.1875C193.031 16.5938 193.109 19.9531 193.266 23.2656C193.453 26.5781 193.625 29.9375 193.781 33.3438C195.719 33.1875 197.641 33 199.547 32.7812C201.453 32.5625 203.375 32.3125 205.312 32.0312C205.594 32.0312 205.844 32.0156 206.062 31.9844C206.312 31.9531 206.562 31.9375 206.812 31.9375C207.469 31.9375 207.922 32.1094 208.172 32.4531C208.453 32.7969 208.594 33.2812 208.594 33.9062C208.594 34.3438 208.562 34.75 208.5 35.125C208.469 35.5 208.375 35.875 208.219 36.25C208 36.875 207.641 37.3281 207.141 37.6094C206.641 37.8906 206.078 38.0938 205.453 38.2188C204.828 38.3125 204.172 38.3594 203.484 38.3594C202.828 38.3594 202.25 38.375 201.75 38.4062C200.438 38.4688 199.141 38.5156 197.859 38.5469C196.609 38.5781 195.344 38.625 194.062 38.6875C194.094 39.3438 194.141 40.3281 194.203 41.6406C194.266 42.9531 194.328 44.4375 194.391 46.0938C194.484 47.7188 194.578 49.4062 194.672 51.1562C194.797 52.9062 194.922 54.5625 195.047 56.125C195.172 57.6562 195.312 59 195.469 60.1562C195.625 61.3125 195.781 62.0938 195.938 62.5C196.281 63.1562 196.672 63.5938 197.109 63.8125C197.547 64 198.125 64.0938 198.844 64.0938C200 64.0938 201.219 63.875 202.5 63.4375C203.781 62.9688 205.031 62.3906 206.25 61.7031C207.469 60.9844 208.625 60.2031 209.719 59.3594C210.844 58.5156 211.812 57.6875 212.625 56.875C212.969 56.5938 213.312 56.3125 213.656 56.0312C214 55.7188 214.406 55.5625 214.875 55.5625C215.344 55.5625 215.797 55.7031 216.234 55.9844C216.672 56.2656 217.062 56.625 217.406 57.0625C217.75 57.4688 218.016 57.9219 218.203 58.4219C218.422 58.9219 218.531 59.375 218.531 59.7812ZM257.625 69.8125C257.625 70.1875 257.438 70.5 257.062 70.75C256.688 71 256.234 71.2031 255.703 71.3594C255.203 71.5156 254.688 71.625 254.156 71.6875C253.656 71.75 253.281 71.7812 253.031 71.7812C252.406 71.7812 251.891 71.7188 251.484 71.5938C251.109 71.5 250.656 71.3125 250.125 71.0312C249.969 70.9375 249.594 70.5469 249 69.8594C248.438 69.1406 247.719 68.2188 246.844 67.0938C246 65.9688 245.031 64.6875 243.938 63.25C242.875 61.8125 241.766 60.3438 240.609 58.8438C239.484 57.3125 238.359 55.7969 237.234 54.2969C236.141 52.7656 235.125 51.375 234.188 50.125C233.25 48.8438 232.438 47.7344 231.75 46.7969C231.094 45.8281 230.625 45.1562 230.344 44.7812L230.062 44.875C230.25 48.5938 230.484 52.3125 230.766 56.0312C231.078 59.7188 231.594 63.375 232.312 67C232.406 67.375 232.5 67.7656 232.594 68.1719C232.719 68.5781 232.781 69 232.781 69.4375C232.781 70.1562 232.547 70.6094 232.078 70.7969C231.609 71.0156 231.094 71.125 230.531 71.125C230.219 71.125 229.844 71.1094 229.406 71.0781C228.969 71.0469 228.516 70.9844 228.047 70.8906C227.578 70.7969 227.141 70.6719 226.734 70.5156C226.359 70.3906 226.062 70.2188 225.844 70C225.406 69.625 225.125 69.2344 225 68.8281C224.906 68.4219 224.812 67.9375 224.719 67.375C223.812 61.0938 223.234 54.7969 222.984 48.4844C222.766 42.1406 222.656 35.8125 222.656 29.5C222.656 26.75 222.672 24.0469 222.703 21.3906C222.734 18.7344 222.781 16.0313 222.844 13.2812C222.469 13.25 222.109 13.125 221.766 12.9062C221.453 12.6875 221.172 12.4219 220.922 12.1094C220.672 11.7656 220.469 11.4219 220.312 11.0781C220.188 10.7031 220.125 10.3437 220.125 10C220.125 9.65625 220.203 9.3125 220.359 8.96875C220.547 8.625 220.766 8.3125 221.016 8.03125C221.297 7.75 221.594 7.48437 221.906 7.23438C222.219 6.98438 222.5 6.78125 222.75 6.625V5.78125C222.75 5.46875 222.75 5.10938 222.75 4.70312C222.781 4.29687 222.844 3.92187 222.938 3.57812C223.062 3.20312 223.25 2.90625 223.5 2.6875C223.75 2.4375 224.125 2.3125 224.625 2.3125C225.281 2.3125 225.938 2.42187 226.594 2.64062C227.25 2.85938 227.812 3.25 228.281 3.8125C230.625 2.875 233.094 2.40625 235.688 2.40625C237.969 2.40625 240.047 2.85938 241.922 3.76562C243.797 4.67187 245.391 5.89062 246.703 7.42188C248.047 8.95313 249.078 10.7187 249.797 12.7188C250.516 14.7188 250.875 16.8125 250.875 19C250.875 21.3438 250.438 23.625 249.562 25.8438C248.688 28.0312 247.547 30.1094 246.141 32.0781C244.734 34.0469 243.125 35.8594 241.312 37.5156C239.531 39.1406 237.719 40.5625 235.875 41.7812C238.812 45.6875 241.781 49.5625 244.781 53.4062C247.812 57.2188 250.906 61.0312 254.062 64.8438C254.25 65.0625 254.531 65.3906 254.906 65.8281C255.312 66.2656 255.719 66.75 256.125 67.2812C256.531 67.7812 256.875 68.2656 257.156 68.7344C257.469 69.2031 257.625 69.5625 257.625 69.8125ZM243.938 18.25C243.938 17.0937 243.734 15.8906 243.328 14.6406C242.922 13.3906 242.344 12.2656 241.594 11.2656C240.844 10.2344 239.938 9.39062 238.875 8.73438C237.844 8.07812 236.688 7.75 235.406 7.75C234.375 7.75 233.344 7.90625 232.312 8.21875C231.312 8.5 230.344 8.875 229.406 9.34375C229.469 14 229.516 18.6563 229.547 23.3125C229.609 27.9688 229.688 32.625 229.781 37.2812L230.625 37.375C232.25 36.4688 233.844 35.3281 235.406 33.9531C237 32.5781 238.422 31.0469 239.672 29.3594C240.953 27.6719 241.984 25.8906 242.766 24.0156C243.547 22.1094 243.938 20.1875 243.938 18.25Z" fill="#209CEE"/>
</g>
<defs>
<filter id="filter0_d_1_3" x="0.453125" y="0.71875" width="261.172" height="80.6562" filterUnits="userSpaceOnUse" color-interpolation-filters="sRGB">
<feFlood flood-opacity="0" result="BackgroundImageFix"/>
<feColorMatrix in="SourceAlpha" type="matrix" values="0 0 0 0 0 0 0 0 0 0 0 0 0 0 0 0 0 0 127 0" result="hardAlpha"/>
<feOffset dy="4"/>
<feGaussianBlur stdDeviation="2"/>
<feComposite in2="hardAlpha" operator="out"/>
<feColorMatrix type="matrix" values="0 0 0 0 0 0 0 0 0 0 0 0 0 0 0 0 0 0 0.25 0"/>
<feBlend mode="normal" in2="BackgroundImageFix" result="effect1_dropShadow_1_3"/>
<feBlend mode="normal" in="SourceGraphic" in2="effect1_dropShadow_1_3" result="shape"/>
</filter>
</defs>
</svg>
